<?xml version="1.0" encoding="utf-8"?>
<!-- Generator: Adobe Illustrator 17.1.0, SVG Export Plug-In . SVG Version: 6.00 Build 0)  -->
<!DOCTYPE svg PUBLIC "-//W3C//DTD SVG 1.1//EN" "http://www.w3.org/Graphics/SVG/1.1/DTD/svg11.dtd">
<svg version="1.1" id="Layer_0_xA0_Image_1_" xmlns="http://www.w3.org/2000/svg" xmlns:xlink="http://www.w3.org/1999/xlink"
	 x="0px" y="0px" viewBox="0 0 332 159.8" enable-background="new 0 0 332 159.8" xml:space="preserve">
<g>
	<radialGradient id="SVGID_1_" cx="173.3333" cy="160.3897" r="157.3347" gradientUnits="userSpaceOnUse">
		<stop  offset="4.926108e-003" style="stop-color:#FEBE43"/>
		<stop  offset="1" style="stop-color:#EC9408"/>
	</radialGradient>
	<path fill="url(#SVGID_1_)" d="M0,128.7c7.3,0.6,14.3,2.7,21.5,3.3c2.8,0.2,5.6,0.5,8.4-0.2c1.4-0.4,3.3-0.6,3.5-2.4
		c0.1-2.2-2-2.5-3.6-2.7c-9.9-1-19.6-5-29.8-2"/>
	<radialGradient id="SVGID_2_" cx="173.3333" cy="160.3897" r="157.3347" gradientUnits="userSpaceOnUse">
		<stop  offset="4.926108e-003" style="stop-color:#FEBE43"/>
		<stop  offset="1" style="stop-color:#EC9408"/>
	</radialGradient>
	<path fill="url(#SVGID_2_)" d="M0,124.7c3-2.9,6.5-3.2,10.6-2.4c7,1.4,14.1,2.2,21.2,3.4c2.1,0.3,4,1.3,3.9,3.8
		c-0.1,2.1-1.9,2.7-3.7,3.4c-5.1,2-10.1,0.4-15.2-0.2c-5.7-0.7-11.5-1.2-16.7-4C0,127.4,0,126.1,0,124.7z"/>
	<radialGradient id="SVGID_3_" cx="173.3333" cy="160.3897" r="157.3347" gradientUnits="userSpaceOnUse">
		<stop  offset="4.926108e-003" style="stop-color:#FEBE43"/>
		<stop  offset="1" style="stop-color:#EC9408"/>
	</radialGradient>
	<path fill="url(#SVGID_3_)" d="M77,159.6c-4.5,0-9,1-13.3-1c-4.4-2-7.4-5.1-6.8-10.4c1.5-14.4,4.2-28.5,11.2-41.4
		c4.8-8.9,9.4-17.9,16.3-25.6c11-12.3,24.7-20.5,40-26.3c17.8-6.8,36.4-10.4,55.2-9.5c30.2,1.5,55.6,13.2,74.6,38.1
		c13.1,17.2,22.1,36.1,28.3,56.6c0.2,0.8,0.4,1.6,0.5,2.4c2.2,15,0.1,17.4-15,17.3c-3.3,0-6.7-0.1-10-0.2"/>
	<radialGradient id="SVGID_4_" cx="173.3333" cy="160.3897" r="157.3347" gradientUnits="userSpaceOnUse">
		<stop  offset="4.926108e-003" style="stop-color:#FEBE43"/>
		<stop  offset="1" style="stop-color:#EC9408"/>
	</radialGradient>
	<path fill="url(#SVGID_4_)" d="M50.9,78.8c-0.7,2.4-2.4,4.9-5.1,3.1c-7-4.7-14.8-8.3-20.6-14.6c-1.5-1.6-3.6-3.7-1.6-6.1
		c2.1-2.6,4.4-1.1,6.7,0.2c6.2,3.6,11.9,7.9,17.5,12.2C49.5,74.8,50.8,76.3,50.9,78.8z"/>
	<radialGradient id="SVGID_5_" cx="173.3333" cy="160.3897" r="157.3347" gradientUnits="userSpaceOnUse">
		<stop  offset="4.926108e-003" style="stop-color:#FEBE43"/>
		<stop  offset="1" style="stop-color:#EC9408"/>
	</radialGradient>
	<path fill="url(#SVGID_5_)" d="M307.9,129.8c-2.3,0-3.1,0-3.9,0c-2.7,0.1-5.8,0.6-6.3-3.1c-0.4-3.3,2.7-4.2,4.9-4.7
		c8.3-1.8,16.8-1.5,25.2-1c2,0.1,4.2,1.6,4.1,3.6c-0.1,2.3-2.5,3.4-4.7,3.6C320.4,128.9,313.4,129.3,307.9,129.8z"/>
	<radialGradient id="SVGID_6_" cx="173.3333" cy="160.3897" r="157.3347" gradientUnits="userSpaceOnUse">
		<stop  offset="4.926108e-003" style="stop-color:#FEBE43"/>
		<stop  offset="1" style="stop-color:#EC9408"/>
	</radialGradient>
	<path fill="url(#SVGID_6_)" d="M233.1,43.2c-2.8-0.6-5-2.1-3.3-5.1c4.1-7,7.4-14.5,12.9-20.6c1.7-1.8,3.6-2.4,5.8-1.1
		c2.6,1.5,1.8,3.6,0.9,5.6c-3,7.1-7.8,13-12.4,19.2C236.1,42.5,234.7,43,233.1,43.2z"/>
	<radialGradient id="SVGID_7_" cx="173.3333" cy="160.3897" r="157.3347" gradientUnits="userSpaceOnUse">
		<stop  offset="4.926108e-003" style="stop-color:#FEBE43"/>
		<stop  offset="1" style="stop-color:#EC9408"/>
	</radialGradient>
	<path fill="url(#SVGID_7_)" d="M306.1,59.1c-0.7,2.5-2.9,4.5-5.2,5.9c-5.2,3.2-10.6,6.1-15.9,9.1c-2.1,1.2-4.5,2-6.2-0.5
		c-1.8-2.5-0.2-4.6,1.7-5.9c6.5-4.3,12.6-9.1,19.7-12.4C303.4,53.8,306.3,55.7,306.1,59.1z"/>
	<radialGradient id="SVGID_8_" cx="173.3333" cy="160.3897" r="157.3347" gradientUnits="userSpaceOnUse">
		<stop  offset="4.926108e-003" style="stop-color:#FEBE43"/>
		<stop  offset="1" style="stop-color:#EC9408"/>
	</radialGradient>
	<path fill="url(#SVGID_8_)" d="M156.8,7.7c0.1-2.1,0-3.5,0.4-4.7c0.5-1.7,2-2.8,3.7-3c1.8-0.2,2.6,1.4,2.9,2.9
		c1.5,7.3,2.9,14.6,4.1,21.9c0.5,2.9-0.8,5.4-3.9,6c-3.5,0.7-4.1-2.2-4.5-4.7C158.4,19.8,157.6,13.4,156.8,7.7z"/>
	<radialGradient id="SVGID_9_" cx="173.3333" cy="160.3897" r="157.3347" gradientUnits="userSpaceOnUse">
		<stop  offset="4.926108e-003" style="stop-color:#FEBE43"/>
		<stop  offset="1" style="stop-color:#EC9408"/>
	</radialGradient>
	<path fill="url(#SVGID_9_)" d="M79.7,18c1.6,0.3,3,1.3,3.9,2.7c4.3,5.9,8.4,11.9,12.6,17.8c1.3,1.9,2.2,4-0.1,5.7
		c-2,1.5-3.9,0.6-5.4-0.9c-5.7-6-10.3-12.9-13.6-20.5C76.3,20.7,76.6,18.5,79.7,18z"/>
</g>
</svg>
